<svg xmlns="http://www.w3.org/2000/svg" fill="none" viewBox="0 0 24 24">
    <rect width="22" height="22" x="1" y="1" fill="url(#avax-ojv12bb4n)" rx="11"></rect>
    <path fill="#fff" fill-rule="evenodd" d="M12.447 6.96c-.259-.447-.67-.447-.93 0l-4.696 8.27c-.258.453-.047.812.47.812H9.65c.476-.03.905-.283 1.164-.682l2.839-4.92a1.545 1.545 0 0 0 0-1.346l-.847-1.487-.358-.647Zm3.121 5.443c-.259-.447-.676-.447-.934 0l-1.64 2.827c-.253.447-.042.811.47.811h3.244c.518 0 .73-.364.47-.81l-1.61-2.828Z" clip-rule="evenodd"></path>    <!---->
    <defs>
        <linearGradient id="avax-ojv12bb4n" x1="12" x2="12" y1="2" y2="22" gradientUnits="userSpaceOnUse">
            <stop stop-color="#FF8585"></stop>
            <stop offset="1" stop-color="#EB5757"></stop>
        </linearGradient>
    </defs>
</svg>