<?xml version="1.0" encoding="utf-8"?>
<svg viewBox="32.071 67.241 753.2331 966.4098" xmlns="http://www.w3.org/2000/svg" xmlns:xlink="http://www.w3.org/1999/xlink">
  <defs>
    <linearGradient id="linear-gradient" x1="123.38" y1="579.37" x2="871.82" y2="579.37" gradientUnits="userSpaceOnUse" gradientTransform="matrix(1, 0, 0, 1, -91.308807, 50.411259)">
      <stop offset="0.11" stop-color="#fec2d9"/>
      <stop offset="0.38" stop-color="#dbcaf4"/>
      <stop offset="0.65" stop-color="#a4c2ff"/>
      <stop offset="0.97" stop-color="#c6fcdb"/>
    </linearGradient>
    <linearGradient id="linear-gradient-2" x1="211.79" y1="566.1" x2="352.2" y2="566.1" gradientUnits="userSpaceOnUse" gradientTransform="matrix(1, 0, 0, 1, -91.308807, 50.411259)">
      <stop offset="0.18" stop-color="#fec2d9"/>
      <stop offset="0.51" stop-color="#e3deda"/>
      <stop offset="0.82" stop-color="#c6fcdb"/>
    </linearGradient>
    <linearGradient id="linear-gradient-3" x1="506.88" y1="140.59" x2="383.29" y2="354.65" gradientUnits="userSpaceOnUse" gradientTransform="matrix(1, 0, 0, 1, -91.308807, 50.411259)">
      <stop offset="0.22" stop-color="#fec2d9"/>
      <stop offset="0.68" stop-color="#f6991a"/>
      <stop offset="1" stop-color="#fc762b"/>
    </linearGradient>
    <linearGradient id="linear-gradient-4" x1="408.03" y1="565.68" x2="408.03" y2="502.29" gradientUnits="userSpaceOnUse" gradientTransform="matrix(1, 0, 0, 1, -91.308807, 50.411259)">
      <stop offset="0.11" stop-color="#fec2d9"/>
      <stop offset="0.57" stop-color="#a4c2ff"/>
      <stop offset="0.97" stop-color="#c6fcdb"/>
    </linearGradient>
    <linearGradient id="linear-gradient-5" x1="376.19" y1="592.53" x2="409.06" y2="592.53" gradientUnits="userSpaceOnUse" gradientTransform="matrix(1, 0, 0, 1, -91.308807, 50.411259)">
      <stop offset="0.18" stop-color="#fec2d9"/>
      <stop offset="0.86" stop-color="#f6991a"/>
    </linearGradient>
    <linearGradient id="linear-gradient-6" x1="285.7" y1="281.25" x2="299.88" y2="256.69" gradientTransform="matrix(1, 0, 0, 1, -91.308807, 50.411259)" xlink:href="#linear-gradient"/>
    <linearGradient id="linear-gradient-7" x1="450.33" y1="512.57" x2="470.89" y2="512.57" gradientUnits="userSpaceOnUse" gradientTransform="matrix(1, 0, 0, 1, -91.308807, 50.411259)">
      <stop offset="0.37" stop-color="#a4c2ff"/>
      <stop offset="0.62" stop-color="#b5deed"/>
      <stop offset="0.86" stop-color="#c6fcdb"/>
    </linearGradient>
    <linearGradient id="linear-gradient-8" x1="177.88" y1="425.23" x2="198.22" y2="425.23" gradientTransform="matrix(1, 0, 0, 1, -91.308807, 50.411259)" xlink:href="#linear-gradient-7"/>
    <linearGradient id="linear-gradient-9" x1="177" y1="337.48" x2="284.81" y2="337.48" gradientUnits="userSpaceOnUse" gradientTransform="matrix(1, 0, 0, 1, -91.308807, 50.411259)">
      <stop offset="0.14" stop-color="#a4c2ff"/>
      <stop offset="0.89" stop-color="#fec2d9"/>
    </linearGradient>
  </defs>
  <path class="cls-1" d="M 780.511 988.721 L 535.221 987.891 L 289.941 987.061 C 203.001 907.061 138.541 847.801 95.801 808.501 L 32.071 749.881 C 32.071 749.881 32.251 708.371 32.591 627.731 C 32.931 547.091 33.441 427.341 34.101 270.841 L 418.861 270.841 C 418.861 270.841 484.501 410.941 550.151 551.031 L 681.451 831.221 C 702.011 866.491 721.361 897.871 738.271 924.431 C 755.181 950.991 769.691 972.731 780.511 988.721 Z" style="fill: url('#linear-gradient'); stroke: rgb(0, 0, 0); stroke-linecap: round; stroke-miterlimit: 10; stroke-width: 3px;" transform="matrix(1, 0, 0, 1, -5.684341886080802e-14, 0)"/>
  <polygon class="cls-2" points="420.891 966.161 226.481 966.161 32.071 966.161 32.071 896.911 32.071 827.671 226.481 827.671 420.891 827.671 420.891 896.911 420.891 966.161" style="fill: rgb(246, 153, 26); stroke: rgb(7, 7, 7); stroke-linecap: round; stroke-miterlimit: 10; stroke-width: 3px;" transform="matrix(1, 0, 0, 1, -5.684341886080802e-14, 0)"/>
  <polygon class="cls-2" points="406.451 925.521 226.481 925.521 46.501 925.521 46.501 893.391 46.501 861.251 226.481 861.251 406.451 861.251 406.451 893.391 406.451 925.521" style="fill: rgb(246, 153, 26); stroke: rgb(7, 7, 7); stroke-linecap: round; stroke-miterlimit: 10; stroke-width: 3px;" transform="matrix(1, 0, 0, 1, -5.684341886080802e-14, 0)"/>
  <polyline class="cls-3" points="46.501 873.651 226.481 873.651 406.451 873.651" style="fill: rgb(216, 125, 97); stroke: rgb(0, 0, 0); stroke-linecap: round; stroke-miterlimit: 10; stroke-width: 3px;" transform="matrix(1, 0, 0, 1, -5.684341886080802e-14, 0)"/>
  <polyline class="cls-3" points="46.501 886.651 226.481 886.651 406.451 886.651" style="fill: rgb(216, 125, 97); stroke: rgb(0, 0, 0); stroke-linecap: round; stroke-miterlimit: 10; stroke-width: 3px;" transform="matrix(1, 0, 0, 1, -5.684341886080802e-14, 0)"/>
  <polyline class="cls-3" points="46.501 899.661 226.481 899.661 406.451 899.661" style="fill: rgb(216, 125, 97); stroke: rgb(0, 0, 0); stroke-linecap: round; stroke-miterlimit: 10; stroke-width: 3px;" transform="matrix(1, 0, 0, 1, -5.684341886080802e-14, 0)"/>
  <polyline class="cls-3" points="46.501 912.661 226.481 912.661 406.451 912.661" style="fill: rgb(216, 125, 97); stroke: rgb(0, 0, 0); stroke-linecap: round; stroke-miterlimit: 10; stroke-width: 3px;" transform="matrix(1, 0, 0, 1, -5.684341886080802e-14, 0)"/>
  <polygon class="cls-2" points="44.931 994.461 38.501 994.461 32.071 994.461 32.071 980.311 32.071 966.161 38.501 966.161 44.931 966.161 44.931 980.311 44.931 994.461" style="fill: rgb(246, 153, 26); stroke: rgb(7, 7, 7); stroke-linecap: round; stroke-miterlimit: 10; stroke-width: 3px;" transform="matrix(1, 0, 0, 1, -5.684341886080802e-14, 0)"/>
  <polygon class="cls-2" points="420.891 994.461 414.461 994.461 408.031 994.461 408.031 980.311 408.031 966.161 414.461 966.161 420.891 966.161 420.891 980.311 420.891 994.461" style="fill: rgb(246, 153, 26); stroke: rgb(7, 7, 7); stroke-linecap: round; stroke-miterlimit: 10; stroke-width: 3px;" transform="matrix(1, 0, 0, 1, -5.684341886080802e-14, 0)"/>
  <path class="cls-4" d="M 226.481 86.411 C 176.781 86.411 131.791 110.161 99.221 148.561 C 66.651 186.961 46.501 240.001 46.501 298.561 L 46.501 730.731 L 406.501 730.731 L 406.501 298.571 C 406.501 239.981 386.361 186.941 353.791 148.571 C 321.221 110.201 276.181 86.411 226.481 86.411 Z" style="fill: rgb(4, 4, 0);" transform="matrix(1, 0, 0, 1, -5.684341886080802e-14, 0)"/>
  <path class="cls-5" d="M 163.001 741.571 C 163.289 741.573 163.577 741.55 163.861 741.501 C 164.151 741.449 164.435 741.372 164.711 741.271 C 164.992 741.169 165.263 741.042 165.521 740.891 C 165.786 740.736 166.037 740.559 166.271 740.361 C 166.779 739.924 167.185 739.382 167.461 738.771 C 167.728 738.171 167.883 737.527 167.921 736.871 C 167.955 736.194 167.863 735.516 167.651 734.871 C 167.431 734.227 167.092 733.63 166.651 733.111 C 160.819 726.133 155.628 718.642 151.141 710.731 C 142.108 694.822 135.884 677.475 132.741 659.451 C 131.176 650.491 130.42 641.407 130.481 632.311 C 130.481 630.581 130.541 628.781 130.661 626.961 C 130.764 625.122 130.961 623.29 131.251 621.471 C 131.54 619.643 131.961 617.838 132.511 616.071 C 133.054 614.318 133.778 612.625 134.671 611.021 C 135.396 609.728 136.269 608.524 137.271 607.431 C 138.314 606.292 139.493 605.284 140.781 604.431 C 142.063 603.567 143.474 602.912 144.961 602.491 C 146.453 602.069 148.016 601.96 149.551 602.171 C 150.739 602.341 151.897 602.677 152.991 603.171 C 154.136 603.697 155.231 604.326 156.261 605.051 C 157.33 605.803 158.358 606.611 159.341 607.471 C 160.341 608.331 161.291 609.221 162.211 610.101 C 164.638 612.421 167.018 614.795 169.351 617.221 C 171.691 619.651 173.961 622.131 176.191 624.661 C 178.421 627.191 180.581 629.771 182.701 632.401 C 184.821 635.031 186.861 637.691 188.861 640.401 C 189.661 641.461 190.833 642.176 192.141 642.401 C 192.782 642.521 193.44 642.521 194.081 642.401 C 196.071 641.985 197.635 640.445 198.081 638.461 C 198.387 637.16 198.175 635.79 197.491 634.641 C 194.311 629.268 191.388 623.738 188.721 618.051 C 186.055 612.365 183.665 606.568 181.551 600.661 C 179.441 594.761 177.601 588.751 176.061 582.661 C 174.521 576.571 173.271 570.461 172.321 564.301 C 171.721 560.391 171.321 556.711 171.051 553.231 C 170.815 549.954 170.745 546.666 170.841 543.381 C 170.933 540.432 171.22 537.492 171.701 534.581 C 172.139 531.896 172.781 529.249 173.621 526.661 C 174.798 523.211 176.465 519.947 178.571 516.971 C 180.838 513.704 183.528 510.752 186.571 508.191 C 189.52 505.667 192.91 503.711 196.571 502.421 C 200.107 501.186 203.919 500.971 207.571 501.801 C 209.732 502.358 211.768 503.318 213.571 504.631 C 215.496 506.014 217.281 507.581 218.901 509.311 C 220.581 511.061 222.171 512.931 223.691 514.751 C 225.211 516.571 226.691 518.341 228.051 519.871 C 230.145 522.151 232.201 524.455 234.221 526.781 C 236.221 529.121 238.221 531.471 240.221 533.861 C 242.221 536.251 244.121 538.651 246.021 541.081 C 247.921 543.511 249.791 545.981 251.621 548.461 C 252.381 549.492 253.484 550.219 254.731 550.511 C 255.336 550.661 255.965 550.691 256.581 550.601 C 257.212 550.517 257.818 550.302 258.361 549.971 C 258.98 549.603 259.512 549.105 259.921 548.511 C 260.314 547.947 260.583 547.307 260.711 546.631 C 260.846 545.971 260.846 545.291 260.711 544.631 C 260.556 543.938 260.259 543.285 259.841 542.711 C 257.281 539.251 254.661 535.835 251.981 532.461 C 249.301 529.088 246.555 525.755 243.741 522.461 C 240.941 519.181 238.081 515.951 235.161 512.771 C 232.241 509.591 229.295 506.471 226.321 503.411 C 225.321 502.411 224.371 501.411 223.321 500.481 C 222.271 499.551 221.241 498.591 220.121 497.701 C 219.008 496.813 217.842 495.991 216.631 495.241 C 215.391 494.49 214.094 493.838 212.751 493.291 C 211.388 492.743 209.979 492.315 208.541 492.011 C 207.066 491.702 205.567 491.515 204.061 491.451 C 202.506 491.394 200.948 491.451 199.401 491.621 C 197.783 491.81 196.179 492.107 194.601 492.511 C 191.146 493.426 187.839 494.83 184.781 496.681 C 181.62 498.586 178.717 500.888 176.141 503.531 C 173.459 506.283 171.109 509.341 169.141 512.641 C 167.071 516.086 165.394 519.752 164.141 523.571 C 162.935 527.319 162.068 531.168 161.551 535.071 C 161.055 538.811 160.811 542.579 160.821 546.351 C 160.821 550.001 161.021 553.521 161.331 556.801 C 161.641 560.081 162.051 563.131 162.471 565.851 C 162.998 569.325 163.621 572.785 164.341 576.231 C 165.061 579.678 165.865 583.111 166.751 586.531 C 167.638 589.951 168.618 593.345 169.691 596.711 C 170.765 600.078 171.918 603.411 173.151 606.711 L 172.151 605.711 C 171.821 605.381 171.491 605.051 171.151 604.711 L 170.151 603.711 C 169.821 603.381 169.481 603.061 169.151 602.711 C 167.951 601.561 166.701 600.401 165.361 599.271 C 164.019 598.12 162.607 597.055 161.131 596.081 C 159.627 595.091 158.033 594.244 156.371 593.551 C 154.65 592.836 152.846 592.339 151.001 592.071 C 148.355 591.694 145.661 591.819 143.061 592.441 C 140.584 593.066 138.222 594.078 136.061 595.441 C 133.921 596.769 131.967 598.377 130.251 600.221 C 128.593 601.972 127.155 603.92 125.971 606.021 C 124.828 608.08 123.884 610.243 123.151 612.481 C 122.437 614.657 121.889 616.883 121.511 619.141 C 121.136 621.336 120.876 623.549 120.731 625.771 C 120.581 627.941 120.531 630.081 120.511 632.131 C 120.442 641.851 121.249 651.557 122.921 661.131 C 126.285 680.361 132.943 698.866 142.601 715.831 C 147.401 724.266 152.95 732.251 159.181 739.691 C 159.424 739.981 159.699 740.243 160.001 740.471 C 160.593 740.916 161.276 741.223 162.001 741.371 C 162.328 741.469 162.662 741.536 163.001 741.571 Z" style="fill: url('#linear-gradient-2'); stroke: rgb(0, 0, 0); stroke-linecap: round; stroke-miterlimit: 10; stroke-width: 3px;" transform="matrix(1, 0, 0, 1, -5.684341886080802e-14, 0)"/>
  <path class="cls-6" d="M 413.811 466.411 C 414.142 466.211 414.453 465.98 414.741 465.721 C 415.033 465.463 415.301 465.178 415.541 464.871 C 415.785 464.556 416.002 464.222 416.191 463.871 C 416.384 463.509 416.544 463.131 416.671 462.741 C 416.943 461.893 417.025 460.995 416.911 460.111 C 416.799 459.241 416.524 458.4 416.101 457.631 C 415.667 456.872 415.101 456.195 414.431 455.631 C 413.744 455.044 412.949 454.596 412.091 454.311 C 400.604 450.467 389.486 445.598 378.871 439.761 C 357.519 428.037 338.349 412.719 322.201 394.481 C 314.169 385.413 306.97 375.641 300.691 365.281 C 299.491 363.281 298.291 361.231 297.151 359.091 C 296.011 356.951 294.931 354.721 293.981 352.441 C 293.034 350.167 292.252 347.828 291.641 345.441 C 291.038 343.07 290.676 340.645 290.561 338.201 C 290.488 336.231 290.636 334.259 291.001 332.321 C 291.381 330.285 292.009 328.304 292.871 326.421 C 293.713 324.545 294.851 322.816 296.241 321.301 C 297.643 319.778 299.345 318.562 301.241 317.731 C 302.715 317.105 304.271 316.691 305.861 316.501 C 307.521 316.31 309.194 316.263 310.861 316.361 C 312.597 316.464 314.326 316.661 316.041 316.951 C 317.771 317.231 319.481 317.571 321.131 317.951 C 325.511 318.878 329.871 319.908 334.211 321.041 C 338.551 322.175 342.885 323.395 347.211 324.701 C 351.498 326.035 355.758 327.441 359.991 328.921 C 364.211 330.421 368.411 332.011 372.561 333.701 C 375.063 334.705 377.92 334.171 379.891 332.331 C 380.545 331.718 381.074 330.984 381.451 330.171 C 381.828 329.357 382.042 328.477 382.081 327.581 C 382.164 325.836 381.581 324.124 380.451 322.791 C 379.874 322.103 379.167 321.536 378.371 321.121 C 371.038 317.248 363.865 313.021 356.851 308.441 C 349.838 303.861 343.068 298.951 336.541 293.711 C 330.008 288.491 323.745 282.975 317.751 277.161 C 311.758 271.348 306.071 265.278 300.691 258.951 C 297.278 254.951 294.221 251.065 291.521 247.291 C 288.958 243.751 286.582 240.079 284.401 236.291 C 282.45 232.883 280.72 229.352 279.221 225.721 C 277.844 222.375 276.724 218.928 275.871 215.411 C 274.787 210.666 274.39 205.79 274.691 200.931 C 274.997 195.648 276.006 190.428 277.691 185.411 C 279.284 180.485 281.772 175.895 285.031 171.871 C 288.164 168.008 292.324 165.107 297.031 163.501 C 299.87 162.622 302.848 162.283 305.811 162.501 C 308.959 162.726 312.077 163.259 315.121 164.091 C 318.241 164.901 321.351 165.921 324.341 166.921 C 327.331 167.921 330.211 168.921 332.871 169.671 C 336.825 170.798 340.765 171.978 344.691 173.211 C 348.618 174.445 352.525 175.725 356.411 177.051 C 360.298 178.385 364.171 179.765 368.031 181.191 C 371.891 182.618 375.728 184.101 379.541 185.641 C 380.339 185.955 381.184 186.131 382.041 186.161 C 382.876 186.183 383.708 186.061 384.501 185.801 C 385.284 185.537 386.012 185.134 386.651 184.611 C 387.31 184.061 387.848 183.38 388.231 182.611 C 388.674 181.759 388.93 180.821 388.981 179.861 C 389.032 178.949 388.892 178.036 388.571 177.181 C 388.248 176.327 387.758 175.545 387.131 174.881 C 386.477 174.203 385.686 173.672 384.811 173.321 C 379.478 171.181 374.118 169.135 368.731 167.181 C 363.345 165.228 357.905 163.368 352.411 161.601 C 346.938 159.841 341.438 158.175 335.911 156.601 C 330.385 155.028 324.838 153.565 319.271 152.211 C 317.501 151.771 315.691 151.341 313.851 150.971 C 312.011 150.601 310.161 150.271 308.291 150.051 C 306.404 149.814 304.503 149.697 302.601 149.701 C 300.671 149.706 298.745 149.87 296.841 150.191 C 294.911 150.524 293.014 151.026 291.171 151.691 C 289.287 152.372 287.461 153.205 285.711 154.181 C 283.903 155.199 282.175 156.353 280.541 157.631 C 278.834 158.965 277.226 160.423 275.731 161.991 C 272.445 165.437 269.67 169.337 267.491 173.571 C 265.249 177.942 263.569 182.579 262.491 187.371 C 261.368 192.372 260.831 197.486 260.891 202.611 C 260.96 207.96 261.631 213.283 262.891 218.481 C 264.139 223.577 265.843 228.55 267.981 233.341 C 270.033 237.923 272.388 242.363 275.031 246.631 C 277.581 250.781 280.271 254.631 282.911 258.131 C 285.551 261.631 288.151 264.801 290.521 267.591 C 293.555 271.151 296.678 274.638 299.891 278.051 C 303.105 281.465 306.415 284.798 309.821 288.051 C 313.221 291.305 316.705 294.468 320.271 297.541 C 323.838 300.615 327.478 303.598 331.191 306.491 L 329.381 306.071 L 327.571 305.651 L 325.751 305.251 C 325.151 305.121 324.541 304.981 323.931 304.861 C 321.781 304.401 319.531 303.951 317.241 303.601 C 314.923 303.244 312.586 303.026 310.241 302.951 C 307.846 302.877 305.449 303.028 303.081 303.401 C 300.627 303.795 298.232 304.494 295.951 305.481 C 292.685 306.912 289.72 308.948 287.211 311.481 C 284.815 313.911 282.82 316.706 281.301 319.761 C 279.81 322.767 278.714 325.954 278.041 329.241 C 277.398 332.385 277.132 335.594 277.251 338.801 C 277.389 341.936 277.828 345.05 278.561 348.101 C 279.275 351.066 280.207 353.974 281.351 356.801 C 282.464 359.546 283.715 362.233 285.101 364.851 C 286.461 367.421 287.881 369.851 289.301 372.221 C 296.018 383.274 303.715 393.699 312.301 403.371 C 329.51 422.805 349.939 439.127 372.691 451.621 C 384.025 457.831 395.897 463.005 408.161 467.081 C 408.654 467.258 409.169 467.369 409.691 467.411 C 410.176 467.466 410.666 467.466 411.151 467.411 C 411.625 467.352 412.091 467.242 412.541 467.081 C 412.987 466.903 413.412 466.678 413.811 466.411 Z" style="fill: url('#linear-gradient-3'); stroke: rgb(0, 0, 0); stroke-linecap: round; stroke-miterlimit: 10; stroke-width: 3px;" transform="matrix(1, 0, 0, 1, -5.684341886080802e-14, 0)"/>
  <path class="cls-2" d="M 226.481 67.241 C 172.791 67.241 124.191 92.901 89.011 134.411 C 53.831 175.921 32.071 233.151 32.071 296.411 L 32.071 749.881 L 420.891 749.881 L 420.891 296.411 C 420.891 233.121 399.131 175.821 363.891 134.341 C 328.651 92.861 280.161 67.241 226.481 67.241 Z M 403.551 260.411 L 246.551 260.411 L 303.691 208.851 L 360.691 157.261 C 371.741 171.911 380.897 187.898 387.941 204.841 C 395.385 222.661 400.627 241.322 403.551 260.411 Z M 350.391 144.701 L 292.501 197.031 L 234.601 249.411 L 234.601 86.621 C 256.667 87.811 278.232 93.652 297.881 103.761 C 317.769 114.038 335.574 127.92 350.391 144.701 Z M 218.391 86.621 L 218.391 247.991 L 160.831 195.991 L 103.281 143.991 C 118.066 127.42 135.782 113.72 155.541 103.581 C 175.064 93.594 196.465 87.816 218.361 86.621 L 218.391 86.621 Z M 207.901 260.411 L 49.411 260.411 C 52.352 241.138 57.651 222.3 65.191 204.321 C 72.335 187.24 81.63 171.139 92.851 156.411 L 150.381 208.411 L 207.901 260.411 Z M 406.451 730.711 L 46.501 730.711 L 46.501 298.571 C 46.501 294.871 46.581 291.205 46.741 287.571 C 46.901 283.938 47.138 280.311 47.451 276.691 L 405.501 276.691 C 405.821 280.291 406.051 283.921 406.211 287.571 C 406.371 291.221 406.451 294.891 406.451 298.571 L 406.451 730.731 L 406.451 730.711 Z" style="fill: rgb(246, 153, 26); stroke: rgb(7, 7, 7); stroke-linecap: round; stroke-miterlimit: 10; stroke-width: 3px;" transform="matrix(1, 0, 0, 1, -5.684341886080802e-14, 0)"/>
  <path class="cls-7" d="M 350.001 584.411 C 350.001 583.261 347.061 582.221 342.181 581.411 C 335.743 580.457 329.249 579.926 322.741 579.821 C 322.652 573.341 321.983 566.882 320.741 560.521 C 319.671 555.651 318.271 552.711 316.741 552.711 C 315.211 552.711 313.811 555.651 312.741 560.521 C 311.499 566.882 310.83 573.341 310.741 579.821 C 304.22 579.924 297.713 580.455 291.261 581.411 C 286.381 582.221 283.451 583.261 283.451 584.411 C 283.451 585.561 286.381 586.591 291.261 587.411 C 297.697 588.358 304.187 588.883 310.691 588.981 C 310.78 595.461 311.449 601.921 312.691 608.281 C 313.761 613.151 315.161 616.091 316.691 616.091 C 318.221 616.091 319.621 613.151 320.691 608.281 C 321.933 601.921 322.602 595.461 322.691 588.981 C 329.215 588.886 335.726 588.361 342.181 587.411 C 347.061 586.581 350.001 585.541 350.001 584.411 Z" style="fill: url('#linear-gradient-4'); stroke: rgb(0, 0, 0); stroke-linecap: round; stroke-miterlimit: 10; stroke-width: 3px;" transform="matrix(1, 0, 0, 1, -5.684341886080802e-14, 0)"/>
  <path class="cls-8" d="M 317.201 643.611 C 312.021 644.721 308.771 645.931 306.541 648.161 C 304.311 650.391 303.101 653.641 301.991 658.831 C 301.881 659.351 301.25 659.556 300.855 659.201 C 300.746 659.104 300.671 658.974 300.641 658.831 C 299.531 653.641 298.321 650.391 296.091 648.161 C 293.861 645.931 290.621 644.721 285.431 643.611 C 285.106 643.556 284.872 643.271 284.881 642.941 C 284.876 642.613 285.109 642.33 285.431 642.271 C 290.621 641.161 293.861 639.951 296.091 637.721 C 298.321 635.491 299.531 632.241 300.641 627.051 C 300.751 626.532 301.383 626.326 301.778 626.681 C 301.886 626.779 301.961 626.908 301.991 627.051 C 303.101 632.241 304.311 635.491 306.541 637.721 C 308.771 639.951 312.021 641.161 317.201 642.271 C 317.524 642.33 317.756 642.613 317.751 642.941 C 317.761 643.271 317.526 643.556 317.201 643.611 Z" style="fill: url('#linear-gradient-5'); stroke: rgb(0, 0, 0); stroke-linecap: round; stroke-miterlimit: 10; stroke-width: 3px;" transform="matrix(1, 0, 0, 1, -5.684341886080802e-14, 0)"/>
  <path class="cls-9" d="M 217.201 320.041 C 212.071 321.141 208.851 322.341 206.651 324.551 C 204.451 326.761 203.241 329.971 202.141 335.101 C 202.083 335.418 201.804 335.647 201.481 335.641 C 201.157 335.647 200.874 335.42 200.811 335.101 C 199.711 329.971 198.521 326.751 196.311 324.551 C 194.101 322.351 190.891 321.141 185.761 320.041 C 185.444 319.983 185.216 319.704 185.221 319.381 C 185.215 319.057 185.443 318.774 185.761 318.711 C 190.891 317.611 194.101 316.421 196.311 314.211 C 198.521 312.001 199.711 308.791 200.811 303.661 C 200.874 303.343 201.157 303.115 201.481 303.121 C 201.804 303.116 202.083 303.344 202.141 303.661 C 203.241 308.791 204.441 312.001 206.651 314.211 C 208.861 316.421 212.071 317.611 217.201 318.711 C 217.52 318.774 217.747 319.057 217.741 319.381 C 217.747 319.704 217.518 319.983 217.201 320.041 Z" style="fill: url('#linear-gradient-6'); stroke: rgb(0, 0, 0); stroke-linecap: round; stroke-miterlimit: 10; stroke-width: 3px;" transform="matrix(1, 0, 0, 1, -5.684341886080802e-14, 0)"/>
  <path class="cls-10" d="M 369.301 573.261 C 361.388 573.252 356.452 564.68 360.416 557.831 C 364.381 550.982 374.273 550.994 378.222 557.852 C 380.544 561.885 379.867 566.975 376.571 570.261 C 374.644 572.189 372.027 573.269 369.301 573.261 Z M 369.301 558.321 C 365.714 558.321 363.472 562.204 365.265 565.311 C 367.059 568.418 371.543 568.418 373.337 565.311 C 374.39 563.487 374.088 561.183 372.601 559.691 C 371.726 558.816 370.539 558.324 369.301 558.321 Z" style="fill: url('#linear-gradient-7'); stroke: rgb(0, 0, 0); stroke-linecap: round; stroke-miterlimit: 10; stroke-width: 3px;" transform="matrix(1, 0, 0, 1, -5.684341886080802e-14, 0)"/>
  <path class="cls-11" d="M 96.741 485.811 C 88.912 485.829 84.001 477.364 87.9 470.576 C 91.799 463.787 101.585 463.765 105.515 470.537 C 107.824 474.516 107.174 479.549 103.931 482.811 C 102.03 484.73 99.442 485.81 96.741 485.811 Z M 96.741 471.031 C 93.192 471.032 90.975 474.874 92.75 477.947 C 94.524 481.02 98.96 481.019 100.734 477.946 C 101.777 476.139 101.477 473.857 100.001 472.381 C 99.135 471.519 97.963 471.033 96.741 471.031 Z" style="fill: url('#linear-gradient-8'); stroke: rgb(0, 0, 0); stroke-linecap: round; stroke-miterlimit: 10; stroke-width: 3px;" transform="matrix(1, 0, 0, 1, -5.684341886080802e-14, 0)"/>
  <polygon class="cls-12" points="112.201 402.321 107.011 399.971 101.831 397.611 96.641 395.251 91.461 392.901 95.601 390.361 99.741 387.831 103.881 385.301 108.021 382.771 102.441 377.101 96.861 371.431 91.281 365.761 85.691 360.091 92.791 361.241 99.881 362.391 106.971 363.541 114.071 364.691 111.041 356.461 108.021 348.221 104.991 339.991 101.961 331.751 108.941 337.071 115.911 342.381 122.881 347.691 129.851 353.011 131.361 348.331 132.871 343.651 134.381 338.971 135.891 334.301 138.751 339.571 141.601 344.841 144.461 350.111 147.321 355.391 154.201 349.861 161.071 344.331 167.941 338.801 174.821 333.271 171.581 341.871 168.341 350.481 165.111 359.091 161.871 367.701 169.781 367.281 177.691 366.861 185.591 366.441 193.501 366.021 187.241 371.161 180.971 376.301 174.701 381.431 168.441 386.571 172.851 391.161 177.261 395.751 181.681 400.341 186.091 404.921 180.101 405.051 174.111 405.191 168.121 405.321 162.131 405.451 163.191 414.281 164.251 423.111 165.311 431.941 166.371 440.771 160.831 434.121 155.291 427.471 149.751 420.811 144.221 414.161 140.911 421.631 137.611 429.101 134.301 436.561 131.001 444.031 129.831 435.701 128.671 427.371 127.511 419.051 126.341 410.721 118.711 416.401 111.071 422.081 103.431 427.751 95.801 433.431 99.901 425.651 104.001 417.871 108.101 410.101 112.201 402.321" style="fill: url('#linear-gradient-9'); stroke: rgb(0, 0, 0); stroke-linecap: round; stroke-miterlimit: 10; stroke-width: 3px;" transform="matrix(1, 0, 0, 1, -5.684341886080802e-14, 0)"/>
  <path class="cls-13" d="M 572.451 776.591 L 484.361 776.411 L 396.271 776.261 C 375.621 793.671 352.151 811.491 330.521 830.941 C 308.891 850.391 289.081 871.491 275.771 895.411 C 267.637 910.153 264.54 927.148 266.951 943.811 C 269.206 960.512 277.365 975.854 289.951 987.061 C 300.391 996.221 312.731 1001.321 325.771 1004.061 C 338.811 1006.801 352.561 1007.061 365.831 1006.631 C 415.741 1005.031 456.291 1004.461 496.831 1004.301 C 537.371 1004.141 577.941 1004.381 627.881 1004.381 L 633.621 1004.381 C 634.179 1004.35 634.617 1003.89 634.621 1003.331 L 634.621 881.821 L 559.411 881.821 C 559.841 881.421 560.471 880.821 561.221 880.071 C 561.971 879.321 562.861 878.391 563.791 877.321 C 574.741 864.771 578.691 848.941 579.851 835.961 C 580.604 827.867 580.379 819.712 579.181 811.671 L 578.761 809.441 C 578.341 807.261 577.501 802.931 575.831 794.221 C 575.831 793.991 574.961 789.701 574.141 785.401 C 573.321 781.101 572.491 776.821 572.451 776.591 Z" style="fill: rgb(219, 202, 244); stroke: rgb(0, 0, 0); stroke-linecap: round; stroke-miterlimit: 10; stroke-width: 3px;" transform="matrix(1, 0, 0, 1, -5.684341886080802e-14, 0)"/>
  <path class="cls-14" d="M 600.921 960.701 L 597.581 960.701 L 597.581 905.001 L 634.691 905.001 L 634.691 897.411 L 597.591 897.411 L 597.591 881.821 L 590.031 881.821 L 590.031 897.411 L 532.471 897.411 L 532.471 841.711 L 579.151 841.711 C 579.351 840.401 579.511 839.121 579.651 837.861 C 579.791 836.601 579.901 835.361 579.991 834.151 L 532.471 834.151 L 532.471 778.331 C 532.472 778.011 532.432 777.691 532.351 777.381 C 532.262 777.082 532.142 776.794 531.991 776.521 L 525.401 776.521 C 525.248 776.795 525.13 777.088 525.051 777.391 C 524.962 777.7 524.918 778.02 524.921 778.341 L 524.921 834.201 L 469.221 834.201 L 469.221 778.331 C 469.222 777.992 469.171 777.655 469.071 777.331 C 468.979 777.016 468.848 776.714 468.681 776.431 L 462.211 776.431 C 462.037 776.719 461.903 777.028 461.811 777.351 C 461.711 777.675 461.661 778.012 461.661 778.351 L 461.661 834.211 L 405.961 834.211 L 405.961 776.311 L 398.401 776.311 L 398.401 834.201 L 342.921 834.201 L 342.921 820.131 L 339.131 823.411 L 335.361 826.701 L 335.361 834.221 L 326.971 834.221 C 325.638 835.475 324.305 836.728 322.971 837.981 C 321.631 839.241 320.301 840.501 318.971 841.781 L 335.401 841.781 L 335.401 897.411 L 279.691 897.411 L 279.691 888.811 C 279.021 889.901 278.351 890.991 277.691 892.091 C 277.031 893.191 276.401 894.291 275.791 895.411 C 274.918 896.958 274.115 898.535 273.381 900.141 C 272.631 901.741 271.951 903.361 271.321 905.001 L 272.131 905.001 L 272.131 960.701 L 271.491 960.701 C 272.537 963.34 273.739 965.915 275.091 968.411 C 276.464 970.929 277.99 973.361 279.661 975.691 L 279.661 968.231 L 335.361 968.231 L 335.361 1005.561 C 336.621 1005.711 337.871 1005.851 339.131 1005.971 C 340.391 1006.091 341.661 1006.191 342.921 1006.281 L 342.921 968.281 L 398.401 968.281 L 398.401 1005.691 L 402.201 1005.591 L 405.961 1005.501 L 405.961 968.261 L 461.691 968.261 L 461.691 1004.531 L 465.481 1004.531 L 469.251 1004.531 L 469.251 968.261 L 524.951 968.261 L 524.951 1004.261 L 532.501 1004.261 L 532.501 968.261 L 590.051 968.261 L 590.051 1004.261 L 597.611 1004.261 L 597.611 968.261 L 634.691 968.261 L 634.691 960.701 L 600.921 960.701 L 600.921 960.701 Z M 335.361 960.701 L 279.691 960.701 L 279.691 905.001 L 335.391 905.001 L 335.391 960.701 L 335.361 960.701 Z M 398.361 960.701 L 342.921 960.701 L 342.921 905.001 L 398.401 905.001 L 398.401 960.701 L 398.361 960.701 Z M 398.361 897.451 L 342.921 897.451 L 342.921 841.751 L 398.401 841.751 L 398.401 897.411 L 398.361 897.451 Z M 461.691 960.701 L 405.991 960.701 L 405.991 905.001 L 461.691 905.001 L 461.691 960.701 Z M 461.691 897.411 L 405.991 897.411 L 405.991 841.711 L 461.691 841.711 L 461.691 897.411 Z M 524.951 960.661 L 469.251 960.661 L 469.251 904.961 L 524.951 904.961 L 524.951 960.661 Z M 524.951 897.411 L 469.251 897.411 L 469.251 841.711 L 524.951 841.711 L 524.951 897.411 Z M 590.051 960.661 L 532.471 960.661 L 532.471 904.961 L 590.021 904.961 L 590.021 960.661 L 590.051 960.661 Z" style="fill: rgb(132, 161, 229); stroke: rgb(7, 7, 7); stroke-linecap: round; stroke-miterlimit: 10; stroke-width: 3px;" transform="matrix(1, 0, 0, 1, -5.684341886080802e-14, 0)"/>
  <path class="cls-15" d="M 785.251 1006.831 C 785.483 1002.989 784.953 999.138 783.691 995.501 C 782.88 993.126 781.8 990.851 780.471 988.721 L 778.291 985.411 L 776.071 982.131 L 746.621 936.441 L 717.171 890.741 C 716.392 889.534 715.498 888.406 714.501 887.371 C 713.496 886.348 712.376 885.445 711.161 884.681 C 708.349 882.95 705.141 881.965 701.841 881.821 L 743.231 946.541 L 784.621 1011.271 C 784.771 1010.541 784.901 1009.811 785.011 1009.061 C 785.121 1008.311 785.191 1007.591 785.251 1006.831 Z" style="fill: rgb(198, 252, 219); stroke: rgb(0, 0, 0); stroke-linecap: round; stroke-miterlimit: 10; stroke-width: 3px;" transform="matrix(1, 0, 0, 1, -5.684341886080802e-14, 0)"/>
  <path class="cls-16" d="M 701.841 881.851 L 701.401 881.851 L 634.691 881.851 L 634.691 994.171 L 651.211 994.171 L 667.741 994.121 C 667.741 994.121 675.141 997.171 685.511 1001.821 C 695.881 1006.471 709.241 1012.701 721.131 1019.071 C 722.321 1019.711 723.671 1020.401 725.481 1021.321 C 727.291 1022.241 729.561 1023.321 732.591 1024.891 C 739.031 1028.121 742.971 1029.971 745.731 1031.101 C 747.71 1031.96 749.775 1032.603 751.891 1033.021 C 759.144 1034.609 766.73 1033.164 772.891 1029.021 C 778.925 1024.875 783.124 1018.559 784.611 1011.391 L 743.221 946.661 L 701.841 881.851 Z" style="fill: rgb(236, 231, 225); stroke: rgb(0, 0, 0); stroke-linecap: round; stroke-miterlimit: 10; stroke-width: 3px;" transform="matrix(1, 0, 0, 1, -5.684341886080802e-14, 0)"/>
  <path class="cls-16" d="M 592.071 643.281 C 589.511 638.015 586.738 632.925 583.751 628.011 C 580.812 623.162 577.617 618.472 574.181 613.961 C 560.991 596.641 543.801 584.791 524.631 577.541 C 505.461 570.291 484.321 567.671 463.221 568.801 C 396.691 572.411 367.001 609.471 353.971 645.671 C 340.941 681.871 344.541 717.171 344.541 717.171 L 323.911 694.811 L 303.291 672.411 L 272.181 699.201 L 241.061 725.991 L 271.231 770.531 L 301.391 815.111 C 304.978 820.416 309.1 825.338 313.691 829.801 C 318.275 834.264 323.339 838.205 328.791 841.551 C 333.358 844.337 338.18 846.68 343.191 848.551 C 348.861 850.673 354.757 852.133 360.761 852.901 C 365.727 853.616 370.747 853.884 375.761 853.701 C 383.17 853.425 390.45 851.671 397.171 848.541 C 408.721 843.011 417.891 833.121 424.081 820.541 C 430.271 807.961 433.511 792.741 433.191 776.541 L 572.451 776.541 C 572.451 776.541 574.131 785.311 575.821 794.081 L 579.181 811.621 C 579.181 811.351 582.391 808.921 585.821 806.441 C 589.251 803.961 592.821 801.441 593.501 800.871 C 599.519 795.72 604.22 789.206 607.211 781.871 C 610.239 774.55 612.16 766.818 612.911 758.931 C 614.813 739.408 613.982 719.715 610.441 700.421 C 606.953 680.626 600.772 661.401 592.071 643.281 Z" style="fill: rgb(236, 231, 225); stroke: rgb(0, 0, 0); stroke-linecap: round; stroke-miterlimit: 10; stroke-width: 3px;" transform="matrix(1, 0, 0, 1, -5.684341886080802e-14, 0)"/>
  <path class="cls-17" d="M 477.441 578.021 C 489.241 568.081 496.321 552.671 498.761 537.661 C 501.291 522.061 498.591 505.941 488.761 494.261 C 488.351 493.771 487.931 493.261 487.491 492.831 C 487.051 492.401 486.621 491.911 486.171 491.471 C 478.691 484.181 468.691 480.311 458.391 479.721 C 448.043 479.058 437.768 481.843 429.171 487.641 C 424.121 491.301 419.972 496.066 417.041 501.571 C 414.078 507.063 411.73 512.864 410.041 518.871 C 409.664 520.13 409.357 521.409 409.121 522.701 C 408.871 523.981 408.681 525.281 408.481 526.601 C 408.411 527.041 408.321 528.651 408.131 530.201 C 407.941 531.751 407.651 533.201 407.191 533.411 L 404.691 534.411 L 402.241 535.411 L 399.791 536.411 L 397.341 537.411 C 398.571 538.411 399.681 539.351 400.651 540.131 C 401.621 540.911 402.441 541.571 403.101 542.131 C 403.761 542.691 404.361 543.071 404.981 543.571 C 405.601 544.056 406.165 544.61 406.661 545.221 C 407.114 545.827 407.422 546.528 407.561 547.271 C 407.721 547.991 407.791 548.751 407.911 549.501 C 412.721 580.061 450.711 599.251 476.201 579.131 C 476.631 578.691 477.041 578.411 477.441 578.021 Z" style="fill: rgb(242, 179, 193); stroke: rgb(0, 0, 0); stroke-linecap: round; stroke-miterlimit: 10; stroke-width: 3px;" transform="matrix(1, 0, 0, 1, -5.684341886080802e-14, 0)"/>
  <path class="cls-4" d="M 426.601 526.931 C 426.518 527.308 426.362 527.665 426.141 527.981 C 425.709 528.589 425.062 529.011 424.331 529.161 C 423.568 529.31 422.776 529.14 422.141 528.691 C 421.532 528.262 421.112 527.613 420.971 526.881 C 420.886 526.506 420.886 526.117 420.971 525.741 C 421.054 525.381 421.207 525.042 421.421 524.741 C 421.63 524.434 421.899 524.172 422.211 523.971 C 422.515 523.772 422.855 523.633 423.211 523.561 C 423.587 523.481 423.975 523.481 424.351 523.561 C 424.71 523.647 425.049 523.799 425.351 524.011 C 425.653 524.223 425.911 524.491 426.111 524.801 C 426.31 525.107 426.452 525.446 426.531 525.801 C 426.628 526.17 426.652 526.554 426.601 526.931 Z" style="fill: rgb(4, 4, 0);" transform="matrix(1, 0, 0, 1, -5.684341886080802e-14, 0)"/>
  <path class="cls-18" d="M 430.741 543.791 C 430.628 544.152 430.495 544.506 430.341 544.851 C 430.039 545.517 429.681 546.156 429.271 546.761 C 428.727 547.552 428.081 548.268 427.351 548.891 C 425.796 550.225 423.869 551.048 421.831 551.251 C 421.08 551.327 420.323 551.327 419.571 551.251 C 418.988 551.179 418.41 551.069 417.841 550.921 C 417.502 550.825 417.168 550.712 416.841 550.581" style="fill: none; stroke: rgb(0, 0, 0); stroke-linecap: round; stroke-miterlimit: 10; stroke-width: 3px;" transform="matrix(1, 0, 0, 1, -5.684341886080802e-14, 0)"/>
  <polyline class="cls-18" points="421.241 513.931 425.401 515.371 429.571 516.811 433.741 518.251 437.911 519.691" style="fill: none; stroke: rgb(0, 0, 0); stroke-linecap: round; stroke-miterlimit: 10; stroke-width: 3px;" transform="matrix(1, 0, 0, 1, -5.684341886080802e-14, 0)"/>
  <path class="cls-19" d="M 456.971 543.351 C 455.579 549.949 447.566 552.567 442.548 548.062 C 438.261 544.213 438.792 537.344 443.621 534.201 C 444.569 533.588 445.624 533.16 446.731 532.941 C 452.886 531.747 458.267 537.217 456.971 543.351 L 456.971 543.351 Z" style="fill: rgb(255, 100, 6); stroke: rgb(7, 7, 7); stroke-linecap: round; stroke-miterlimit: 10; stroke-width: 3px;" transform="matrix(1, 0, 0, 1, -5.684341886080802e-14, 0)"/>
  <path class="cls-17" d="M 494.471 554.741 C 495.101 552.521 495.721 550.151 496.281 547.651 C 496.841 545.151 497.371 542.511 497.821 539.751 C 498.181 537.541 498.471 535.401 498.711 533.341 C 498.951 531.281 499.121 529.281 499.251 527.341 C 499.919 527.333 500.586 527.359 501.251 527.421 C 502.128 527.508 502.998 527.662 503.851 527.881 C 504.567 528.096 505.264 528.374 505.931 528.711 C 507.135 529.283 508.231 530.057 509.171 531.001 C 511.057 533.076 512.101 535.778 512.101 538.581 C 512.177 541.223 511.718 543.852 510.751 546.311 C 510.32 547.441 509.774 548.523 509.121 549.541 C 508.173 550.994 506.929 552.231 505.471 553.171 C 503.399 554.476 501 555.17 498.551 555.171 C 497.178 555.215 495.805 555.071 494.471 554.741 Z" style="fill: rgb(242, 179, 193); stroke: rgb(0, 0, 0); stroke-linecap: round; stroke-miterlimit: 10; stroke-width: 3px;" transform="matrix(1, 0, 0, 1, -5.684341886080802e-14, 0)"/>
  <path class="cls-3" d="M 411.151 514.081 C 412.081 514.851 411.151 514.081 409.711 512.971 C 408.271 511.861 406.451 510.281 405.581 509.451 C 400.837 504.341 399.674 496.861 402.641 490.551 C 404.297 487.417 406.955 484.928 410.191 483.481 C 411.902 482.672 413.721 482.113 415.591 481.821 C 415.026 479.925 414.73 477.96 414.711 475.981 C 414.605 472.428 415.616 468.93 417.601 465.981 C 419.314 463.547 421.673 461.639 424.411 460.471 C 426.379 459.648 428.436 459.057 430.541 458.711 C 435.271 457.811 439.631 458.951 443.821 460.781 C 448.011 462.611 452.031 465.141 456.081 467.001 C 461.297 469.342 466.734 471.154 472.311 472.411 C 477.791 473.721 483.371 474.681 489.101 475.711 C 493.965 476.516 498.708 477.927 503.221 479.911 C 507.745 481.883 511.72 484.927 514.801 488.781 C 517.797 492.64 519.709 497.227 520.341 502.071 C 520.933 506.904 520.686 511.803 519.611 516.551 C 519.133 518.84 518.539 521.103 517.831 523.331 C 517.118 525.565 516.318 527.761 515.431 529.921 C 515.101 530.721 514.201 532.161 513.431 533.601 C 512.661 535.041 511.931 536.511 512.011 537.361 C 511.947 536.744 511.837 536.132 511.681 535.531 C 511.442 534.698 511.107 533.896 510.681 533.141 C 510.149 532.203 509.474 531.353 508.681 530.621 C 508.161 530.145 507.599 529.716 507.001 529.341 C 505.626 528.446 504.086 527.834 502.471 527.541 C 501.416 527.349 500.342 527.282 499.271 527.341 C 499.271 527.341 498.951 531.341 498.331 536.241 C 497.817 541.095 496.9 545.899 495.591 550.601 C 495.591 550.601 492.201 549.811 489.321 545.131 C 486.441 540.451 484.061 531.891 486.091 516.361 C 474.791 519.751 464.091 519.571 455.561 516.941 C 447.031 514.311 440.561 509.201 437.821 502.751 C 436.93 500.629 436.409 498.37 436.281 496.071 C 436.062 491.483 436.875 486.904 438.661 482.671 C 436.882 483.302 435.151 484.061 433.481 484.941 C 431.482 486.004 429.581 487.242 427.801 488.641 C 426.749 489.46 425.747 490.341 424.801 491.281 C 422.988 493.055 421.334 494.986 419.861 497.051 C 418.771 498.582 417.769 500.175 416.861 501.821 C 416.031 503.351 415.311 504.821 414.591 506.321 C 413.871 507.821 412.971 509.831 412.301 511.321 C 411.631 512.811 411.151 514.081 411.151 514.081 Z" style="fill: rgb(216, 125, 97); stroke: rgb(0, 0, 0); stroke-linecap: round; stroke-miterlimit: 10; stroke-width: 3px;" transform="matrix(1, 0, 0, 1, -5.684341886080802e-14, 0)"/>
  <path class="cls-18" d="M 344.541 717.171 L 355.311 727.951 L 366.091 738.741" style="fill: none; stroke: rgb(0, 0, 0); stroke-linecap: round; stroke-miterlimit: 10; stroke-width: 3px;" transform="matrix(1, 0, 0, 1, -5.684341886080802e-14, 0)"/>
  <path class="cls-18" d="M 566.331 697.411 C 567.401 703.341 568.391 709.541 569.241 715.971 C 570.091 722.401 570.801 729.091 571.351 735.971 C 571.931 743.221 572.291 750.251 572.451 756.971 C 572.611 763.691 572.611 770.271 572.451 776.521" style="fill: none; stroke: rgb(0, 0, 0); stroke-linecap: round; stroke-miterlimit: 10; stroke-width: 3px;" transform="matrix(1, 0, 0, 1, -5.684341886080802e-14, 0)"/>
  <path class="cls-18" d="M 433.691 699.351 C 433.611 712.231 433.528 725.105 433.441 737.971 C 433.355 750.838 433.268 763.711 433.181 776.591" style="fill: none; stroke: rgb(0, 0, 0); stroke-linecap: round; stroke-miterlimit: 10; stroke-width: 3px;" transform="matrix(1, 0, 0, 1, -5.684341886080802e-14, 0)"/>
  <path class="cls-17" d="M 303.291 672.411 C 299.571 666.881 296.061 661.411 292.931 655.721 C 289.753 650 287.077 644.014 284.931 637.831 C 282.081 629.551 279.391 621.181 276.551 612.831 C 273.711 604.481 270.751 596.251 267.341 588.171 C 265.271 583.251 262.971 577.231 260.041 571.651 C 257.111 566.071 253.561 560.931 248.971 557.741 C 248.261 557.223 247.488 556.797 246.671 556.471 C 245.847 556.153 244.957 556.046 244.081 556.161 C 243.535 556.256 243.009 556.438 242.521 556.701 C 242.121 556.916 241.749 557.178 241.411 557.481 L 239.601 554.691 L 237.791 551.911 C 232.011 543.381 227.911 542.011 225.241 542.781 C 223.508 543.434 222.109 544.757 221.361 546.451 C 220.811 545.385 220.118 544.399 219.301 543.521 C 217.857 541.927 215.94 540.837 213.831 540.411 C 213.052 540.252 212.257 540.178 211.461 540.191 C 210.34 540.176 209.245 540.527 208.341 541.191 C 207.041 542.191 206.341 544.131 206.421 546.481 C 206.578 549.323 207.459 552.077 208.981 554.481 C 207.606 554.496 206.246 554.781 204.981 555.321 C 203.93 555.77 203.024 556.5 202.361 557.431 C 200.851 559.631 201.131 562.671 201.961 565.711 C 202.791 568.751 204.151 571.791 204.831 573.971 C 205.951 577.571 206.971 581.201 208.021 584.831 C 209.071 588.461 210.131 592.061 211.341 595.641 C 212.468 598.975 213.511 602.308 214.471 605.641 C 215.471 609.011 216.291 612.421 217.051 615.841 C 217.746 618.376 218.268 620.955 218.611 623.561 C 218.841 626.291 218.461 628.921 216.481 630.681 C 215.905 631.197 215.222 631.579 214.481 631.801 C 214.028 631.942 213.563 632.039 213.091 632.091 C 210.621 632.341 208.231 631.311 205.611 629.091 C 202.287 625.989 199.297 622.547 196.691 618.821 C 195.151 616.751 193.051 613.251 190.531 610.511 C 188.011 607.771 185.081 605.801 181.891 606.801 C 179.711 607.481 178.891 609.281 178.641 611.341 C 178.52 613.351 178.665 615.369 179.071 617.341 C 179.6 620.428 180.469 623.446 181.661 626.341 C 182.801 629.211 184.141 632.011 185.451 634.881 C 187.161 638.661 200.811 661.661 214.151 683.611 C 227.491 705.561 240.551 726.461 241.071 726.011 L 272.191 699.221 L 303.291 672.411 Z" style="fill: rgb(242, 179, 193); stroke: rgb(0, 0, 0); stroke-linecap: round; stroke-miterlimit: 10; stroke-width: 3px;" transform="matrix(1, 0, 0, 1, -5.684341886080802e-14, 0)"/>
  <path class="cls-18" d="M 208.941 554.501 C 211.071 558.791 213.221 563.391 215.331 568.291 C 217.441 573.191 219.501 578.411 221.471 583.931 C 223.321 589.081 224.931 594.071 226.341 598.931 C 227.751 603.791 228.971 608.361 230.011 612.771" style="fill: none; stroke: rgb(0, 0, 0); stroke-linecap: round; stroke-miterlimit: 10; stroke-width: 3px;" transform="matrix(1, 0, 0, 1, -5.684341886080802e-14, 0)"/>
  <path class="cls-18" d="M 221.321 546.511 C 224.091 551.981 226.871 557.861 229.571 564.141 C 232.271 570.421 234.891 577.141 237.361 584.241 C 238.841 588.521 240.191 592.721 241.411 596.811 C 242.631 600.901 243.721 604.881 244.701 608.751" style="fill: none; stroke: rgb(0, 0, 0); stroke-linecap: round; stroke-miterlimit: 10; stroke-width: 3px;" transform="matrix(1, 0, 0, 1, -5.684341886080802e-14, 0)"/>
  <path class="cls-18" d="M 241.371 557.541 C 243.451 562.928 245.495 568.458 247.501 574.131 C 249.508 579.805 251.458 585.615 253.351 591.561 C 254.111 593.921 254.841 596.271 255.561 598.611 C 256.281 600.951 256.971 603.271 257.641 605.611" style="fill: none; stroke: rgb(0, 0, 0); stroke-linecap: round; stroke-miterlimit: 10; stroke-width: 3px;" transform="matrix(1, 0, 0, 1, -5.684341886080802e-14, 0)"/>
  <path class="cls-2" d="M 669.071 994.411 L 673.261 981.641 L 677.441 968.861 C 678.259 966.232 680.111 964.048 682.571 962.811 C 687.27 960.368 693.059 962.15 695.571 966.811 C 696.748 968.944 697.121 971.427 696.621 973.811 C 696.592 973.842 696.592 973.89 696.621 973.921 C 696.657 973.948 696.706 973.948 696.741 973.921 C 697.93 971.711 699.86 969.991 702.191 969.061 C 706.776 967.164 712.06 968.855 714.691 973.061 C 715.971 975.053 716.555 977.413 716.351 979.771 C 716.343 979.847 716.389 979.918 716.461 979.941 C 716.533 979.962 716.61 979.934 716.651 979.871 C 717.862 978.039 719.7 976.712 721.821 976.141 C 725.653 975.225 729.662 976.676 732.021 979.831 C 732.998 981.149 733.634 982.688 733.871 984.311 C 734.001 985.183 734.001 986.069 733.871 986.941 C 733.736 987.817 733.494 988.674 733.151 989.491 L 727.151 1004.271 L 721.101 1019.051 C 715.601 1016.291 710.015 1013.545 704.341 1010.811 C 698.668 1008.078 692.915 1005.358 687.081 1002.651 C 684.055 1001.238 681.055 999.855 678.081 998.501 C 675.108 997.148 672.105 995.785 669.071 994.411 Z" style="fill: rgb(246, 153, 26); stroke: rgb(7, 7, 7); stroke-linecap: round; stroke-miterlimit: 10; stroke-width: 3px;" transform="matrix(1, 0, 0, 1, -5.684341886080802e-14, 0)"/>
  <polyline class="cls-16" points="696.831 973.911 691.581 987.651 686.321 1001.401" style="fill: rgb(236, 231, 225); stroke: rgb(0, 0, 0); stroke-linecap: round; stroke-miterlimit: 10; stroke-width: 3px;" transform="matrix(1, 0, 0, 1, -5.684341886080802e-14, 0)"/>
  <path class="cls-16" d="M 716.431 980.151 L 710.521 994.991 L 704.611 1009.831" style="fill: rgb(236, 231, 225); stroke: rgb(0, 0, 0); stroke-linecap: round; stroke-miterlimit: 10; stroke-width: 3px;" transform="matrix(1, 0, 0, 1, -5.684341886080802e-14, 0)"/>
  <path class="cls-18" d="M 634.691 903.091 L 671.891 903.091 C 674.966 903.496 678.045 902.377 680.141 900.091 C 682.234 897.904 683.377 894.978 683.321 891.951 C 683.165 889.101 681.914 886.422 679.831 884.471 C 677.733 882.417 674.798 881.456 671.891 881.871" style="fill: none; stroke: rgb(0, 0, 0); stroke-linecap: round; stroke-miterlimit: 10; stroke-width: 3px;" transform="matrix(1, 0, 0, 1, -5.684341886080802e-14, 0)"/>
  <path class="cls-18" d="M 508.461 846.161 C 508.461 846.161 506.461 859.161 497.741 875.971 C 486.29 898.005 468.535 916.129 446.741 928.031" style="fill: none; stroke: rgb(0, 0, 0); stroke-linecap: round; stroke-miterlimit: 10; stroke-width: 3px;" transform="matrix(1, 0, 0, 1, -5.684341886080802e-14, 0)"/>
  <polyline class="cls-18" points="559.411 881.821 526.951 881.821 494.491 881.821" style="fill: none; stroke: rgb(0, 0, 0); stroke-linecap: round; stroke-miterlimit: 10; stroke-width: 3px;" transform="matrix(1, 0, 0, 1, -5.684341886080802e-14, 0)"/>
  <polyline class="cls-18" points="318.181 688.591 286.611 717.611 255.031 746.641" style="fill: none; stroke: rgb(0, 0, 0); stroke-linecap: round; stroke-miterlimit: 10; stroke-width: 3px;" transform="matrix(1, 0, 0, 1, -5.684341886080802e-14, 0)"/>
  <polyline class="cls-17" points="711.361 896.201 715.011 894.791 718.661 893.381" style="fill: rgb(242, 179, 193); stroke: rgb(0, 0, 0); stroke-linecap: round; stroke-miterlimit: 10; stroke-width: 3px;" transform="matrix(1, 0, 0, 1, -5.684341886080802e-14, 0)"/>
  <path class="cls-17" d="M 717.691 905.851 L 720.691 904.521 L 723.691 903.181" style="fill: rgb(242, 179, 193); stroke: rgb(0, 0, 0); stroke-linecap: round; stroke-miterlimit: 10; stroke-width: 3px;" transform="matrix(1, 0, 0, 1, -5.684341886080802e-14, 0)"/>
  <polygon class="cls-13" points="182.391 827.671 107.231 827.671 32.071 827.671 32.071 819.301 32.071 810.941 107.231 810.941 182.391 810.941 182.391 819.301 182.391 827.671" style="fill: rgb(219, 202, 244); stroke: rgb(0, 0, 0); stroke-linecap: round; stroke-miterlimit: 10; stroke-width: 3px;" transform="matrix(1, 0, 0, 1, -5.684341886080802e-14, 0)"/>
  <polygon class="cls-20" points="164.841 810.941 111.221 810.941 57.601 810.941 57.601 802.571 57.601 794.211 111.221 794.211 164.841 794.211 164.841 802.571 164.841 810.941" style="fill: rgb(246, 195, 76); stroke: rgb(7, 7, 7); stroke-linecap: round; stroke-miterlimit: 10; stroke-width: 3px;" transform="matrix(1, 0, 0, 1, -5.684341886080802e-14, 0)"/>
</svg>