<svg width="76" height="69" viewBox="0 0 76 69" fill="none" xmlns="http://www.w3.org/2000/svg">
<path d="M72.2778 26.0951C70.3438 18.8305 57.9054 18.7053 44.5035 25.8264C43.0093 26.6218 41.5831 27.4613 40.1899 28.3586C39.9051 26.7448 39.5419 25.1112 39.1069 23.4753C35.196 8.81159 26.6466 -0.206952 19.9973 3.31824C13.3603 6.84876 11.1371 21.5882 15.0534 36.2397C17.4275 45.128 21.5059 51.9384 25.8345 55.1404C26.4404 55.6502 27.155 56.0773 27.9661 56.4162C28.7666 56.7794 29.566 57.012 30.3519 57.1085C35.6444 58.098 43.4143 56.4351 51.5349 52.1335C64.9245 45.0071 74.217 33.3476 72.2778 26.0951Z" fill="#FF8585"/>
</svg>
